<?xml version="1.0" encoding="iso-8859-1"?>
<!-- Uploaded to: SVG Repo, www.svgrepo.com, Generator: SVG Repo Mixer Tools -->
<svg fill="#000000" height="800px" width="800px" version="1.1" id="Layer_1" xmlns="http://www.w3.org/2000/svg" xmlns:xlink="http://www.w3.org/1999/xlink" 
	 viewBox="0 0 512 512" xml:space="preserve">
<g>
	<g>
		<g>
			<path d="M281.408,434.944c1.365-0.853,2.496-2.048,3.328-3.413l13.952-23.253c1.835-3.051,2.027-6.827,0.491-10.048
				c-1.877-3.947-3.093-8.085-3.605-12.309l-2.304-18.645c-1.237-9.493,0.981-19.179,6.165-27.307
				c1.237-1.899,1.813-4.16,1.664-6.421c-0.085-1.387-0.128-2.688-0.128-3.819c0-21.76,8.085-58.987,62.208-63.915
				c1.323-0.128,2.581-0.469,3.755-1.045c6.656-3.264,12.928-4.949,17.685-6.037c2.816-0.661,5.248-2.432,6.741-4.928l1.792-3.008
				c0.981-1.664,1.493-3.541,1.493-5.461V10.667C394.645,4.779,389.867,0,383.979,0H149.312c-0.469,0-0.875,0.213-1.344,0.277
				c-0.491,0.064-0.896,0.149-1.365,0.277c-1.835,0.491-3.541,1.28-4.843,2.581L13.781,131.115
				c-1.301,1.301-2.091,3.008-2.603,4.843c-0.128,0.448-0.213,0.853-0.277,1.323c-0.021,0.469-0.235,0.896-0.235,1.387v320
				c0,5.888,4.779,10.667,10.667,10.667h224.128c3.947,0,7.552-2.155,9.387-5.632C261.013,452.203,270.208,442.283,281.408,434.944z
				 M138.667,128H47.083l91.584-91.584V128z"/>
			<path d="M457.28,444.885l-32.021-8l-1.344-5.355c8.32-9.173,14.208-20.885,16.661-33.045c5.696-2.944,9.813-8.533,10.667-15.253
				l2.304-18.56c0.704-5.632-1.024-11.307-4.757-15.573c-1.152-1.323-2.453-2.453-3.883-3.435l0.533-11.328l1.941-1.941
				c5.504-5.845,12.928-18.325,1.173-36.331c-5.589-8.555-17.109-18.752-40.192-18.752c-6.784,0-22.123,0-37.013,9.344
				c-43.904,1.536-49.067,25.195-49.067,43.072c0,3.52,0.619,10.112,1.237,15.616c-1.579,1.003-3.051,2.24-4.288,3.669
				c-3.797,4.309-5.547,10.005-4.821,15.659l2.304,18.56c0.875,6.955,5.291,12.715,11.797,15.552
				c2.389,11.627,7.979,22.891,15.765,31.829l-1.557,6.272l-32.021,8c-25.899,6.485-44.032,29.696-44.032,56.448
				c0,5.888,4.779,10.667,10.667,10.667h213.333c5.888,0,10.667-4.8,10.667-10.688C501.333,474.581,483.2,451.371,457.28,444.885z"
				/>
		</g>
	</g>
</g>
</svg>